 <svg  version="1.0" xmlns="http://www.w3.org/2000/svg"  width="300.000000pt" height="267.000000pt" viewBox="0 0 300.000000 267.000000"  preserveAspectRatio="xMidYMid meet">  <g transform="translate(0.000000,267.000000) scale(0.100000,-0.100000)" fill="#000000" stroke="none"> <path d="M1425 2623 c-188 -13 -362 -61 -523 -142 -61 -31 -246 -151 -240 -156 2 -2 41 10 88 26 123 41 246 59 395 59 566 0 1049 -350 1226 -889 21 -64 39 -104 39 -90 0 44 -43 164 -108 299 -50 103 -123 202 -232 311 -84 85 -242 209 -266 209 -7 0 -14 3 -16 8 -5 11 -113 61 -202 94 -88 31 -189 56 -276 66 -81 10 -358 5 -389 -7 -14 -6 -48 -12 -74 -15 -41 -3 -46 -2 -36 11 20 23 90 61 195 103 246 101 503 124 759 70 186 -39 316 -99 515 -237 54 -38 201 -192 255 -268 163 -229 238 -475 230 -758 -8 -301 -143 -606 -364 -826 -62 -62 -223 -191 -239 -191 -4 -1 -20 -12 -37 -27 -51 -43 78 30 161 93 145 109 276 266 358 431 245 489 151 1069 -234 1452 -229 227 -537 361 -860 373 -47 2 -103 2 -125 1z"/> <path d="M1260 2004 l0 -106 -105 4 -105 4 0 -133 0 -133 105 0 105 0 0 -105 0 -105 130 0 130 0 0 105 0 105 105 0 105 0 0 133 0 132 -105 -3 -105 -4 0 106 0 106 -130 0 -130 0 0 -106z m215 56 c3 -5 7 -39 9 -74 2 -39 10 -75 20 -90 15 -24 22 -26 89 -26 39 0 78 -4 85 -9 9 -5 12 -31 10 -92 l-3 -84 -77 -5 c-101 -7 -116 -20 -119 -110 -3 -97 -5 -100 -99 -100 -94 0 -100 6 -100 103 0 86 -15 99 -118 107 l-77 5 -3 84 c-2 61 1 87 10 92 7 5 43 9 81 9 91 0 107 16 107 104 0 97 -1 96 95 96 46 0 87 -4 90 -10z"/> <path d="M363 2028 c-39 -66 -95 -210 -119 -305 -169 -665 196 -1357 826 -1567 140 -47 258 -66 405 -66 143 0 261 18 400 61 l100 32 91 91 c177 178 287 387 340 646 19 95 24 301 10 415 l-8 70 -23 -101 c-54 -239 -171 -443 -351 -614 -79 -75 -222 -178 -279 -200 -42 -17 -273 -17 -365 -1 -509 90 -910 500 -1017 1038 -21 111 -22 377 -1 471 8 34 14 62 12 62 -1 0 -11 -15 -21 -32z m-44 -345 c1 -79 41 -276 76 -373 90 -248 258 -478 458 -628 147 -110 357 -198 540 -227 154 -24 155 -25 134 -37 -27 -15 -191 -45 -282 -52 -70 -6 -219 4 -304 19 -67 12 -212 59 -277 90 -81 39 -142 97 -210 200 -99 151 -171 333 -199 508 -25 156 -15 414 20 522 24 71 28 79 36 59 4 -10 8 -47 8 -81z m2077 -607 c-23 -301 -133 -555 -334 -768 -71 -75 -86 -85 -177 -118 -336 -122 -728 -81 -1039 107 -76 46 -277 193 -264 193 2 0 48 -18 102 -40 185 -76 353 -106 540 -97 140 6 240 25 381 72 55 19 114 33 131 33 96 -3 374 228 496 412 54 82 129 225 141 269 3 12 11 21 17 21 9 0 11 -21 6 -84z"/> <path d="M852 1554 c-21 -15 -22 -20 -22 -212 0 -174 2 -201 18 -227 11 -16 69 -83 130 -148 98 -103 112 -123 112 -153 l0 -34 105 0 105 0 0 76 c0 41 -5 85 -11 97 -6 12 -72 84 -147 160 -109 109 -142 137 -164 137 -17 0 -31 -8 -38 -21 -14 -25 -7 -37 84 -138 36 -40 66 -77 66 -81 0 -5 3 -15 6 -24 4 -11 0 -16 -14 -16 -12 0 -23 9 -27 20 -3 10 -38 54 -77 97 -38 43 -74 88 -79 100 -10 26 1 62 25 82 13 11 16 36 16 142 0 121 -1 129 -22 143 -12 9 -27 16 -33 16 -6 0 -21 -7 -33 -16z m51 -56 c11 -46 2 -194 -12 -212 -11 -13 -16 -14 -22 -4 -9 14 -11 191 -3 221 7 24 31 21 37 -5z m222 -420 c129 -129 148 -160 135 -223 -6 -29 -8 -30 -68 -33 l-61 -3 -15 36 c-9 20 -22 43 -31 52 -15 14 -14 18 14 44 17 15 31 33 31 39 0 23 -34 77 -86 137 -52 58 -61 73 -48 73 3 0 61 -55 129 -122z"/> <path d="M1862 1554 c-21 -14 -22 -22 -22 -143 0 -113 2 -130 19 -145 25 -23 34 -61 20 -87 -6 -11 -40 -53 -76 -92 -36 -39 -70 -81 -76 -94 -12 -26 -53 -33 -43 -7 3 9 6 19 6 24 0 4 36 48 80 96 44 49 80 93 80 97 0 24 -23 47 -48 47 -22 0 -55 -28 -164 -137 -75 -76 -142 -151 -148 -166 -5 -16 -10 -60 -10 -98 l0 -69 105 0 105 0 0 29 c0 34 18 58 133 180 134 141 127 122 127 353 0 192 -1 197 -22 212 -12 9 -27 16 -33 16 -6 0 -21 -7 -33 -16z m52 -61 c8 -40 6 -223 -3 -223 -24 0 -31 31 -31 137 0 91 3 113 14 113 8 0 17 -12 20 -27z m-124 -302 c0 -5 -21 -33 -48 -63 -66 -74 -72 -82 -82 -118 -8 -28 -6 -35 19 -58 l28 -27 -34 -52 -34 -53 -58 0 -59 0 -5 38 c-8 63 21 108 146 230 63 61 118 112 121 112 3 0 6 -4 6 -9z"/> </g> </svg> 