 <svg  version="1.0" xmlns="http://www.w3.org/2000/svg"  width="600.000000pt" height="600.000000pt" viewBox="0 0 600.000000 600.000000"  preserveAspectRatio="xMidYMid meet">  <g transform="translate(0.000000,600.000000) scale(0.100000,-0.100000)" fill="#252cef" stroke="none"> <path d="M2110 4799 l0 -381 -205 7 c-134 5 -205 4 -205 -2 0 -6 29 -13 64 -15 81 -7 151 -44 216 -115 67 -73 93 -144 94 -254 1 -79 -2 -90 -37 -161 -56 -114 -140 -179 -262 -204 -56 -11 -45 -12 138 -13 l197 -1 0 -375 0 -376 365 3 c201 2 365 2 365 0 0 -16 -72 -143 -111 -194 -107 -144 -231 -228 -416 -285 -80 -24 -104 -26 -253 -27 -150 0 -174 2 -264 27 -432 119 -750 456 -831 881 -21 106 -21 302 0 379 37 140 115 246 218 297 68 33 137 49 137 32 0 -6 21 -12 46 -14 45 -3 47 -4 59 -45 37 -125 173 -215 300 -199 204 26 315 232 224 415 -89 178 -330 208 -464 58 -25 -27 -48 -60 -51 -73 -6 -22 -12 -24 -60 -24 -30 0 -54 -4 -54 -9 0 -5 -19 -11 -42 -15 -110 -18 -246 -122 -306 -234 -103 -193 -121 -517 -42 -762 188 -583 850 -935 1402 -746 351 120 568 411 568 764 0 177 -57 395 -153 584 -30 58 -140 235 -246 393 -207 310 -300 482 -347 640 -23 77 -27 110 -28 230 0 77 2 152 7 168 6 21 4 27 -8 27 -13 0 -15 -47 -15 -381z m119 -311 c32 -64 66 -127 75 -140 22 -32 198 -296 269 -403 33 -49 68 -102 78 -116 28 -41 107 -203 133 -273 33 -86 74 -255 82 -337 10 -97 -4 -237 -25 -258 -15 -15 -50 -17 -348 -16 -183 1 -335 3 -338 7 -3 3 -8 162 -11 354 -6 411 1 385 -116 391 -40 3 -74 6 -77 8 -2 3 18 27 44 54 108 111 142 273 90 426 -20 57 -44 93 -104 158 l-45 47 71 0 c80 0 119 13 129 43 7 21 12 77 13 147 1 27 5 40 10 35 6 -6 37 -63 70 -127z m-418 -215 c95 -49 147 -144 136 -249 -13 -129 -118 -224 -250 -225 -103 -2 -177 48 -232 156 -43 83 -54 90 -162 102 -50 5 -75 23 -34 23 10 0 35 7 54 15 20 8 52 15 71 15 32 0 40 7 83 64 68 91 126 124 224 125 42 1 69 -6 110 -26z m-581 -223 c-8 -5 -18 -6 -24 -3 -5 4 -1 10 10 13 24 9 34 2 14 -10z m-220 -1002 c0 -24 127 -214 199 -297 62 -71 203 -184 295 -236 81 -45 195 -93 276 -116 49 -13 57 -18 34 -18 -39 -1 -164 39 -259 83 -152 70 -323 209 -426 346 -43 57 -125 210 -143 265 -6 20 -6 20 9 1 8 -11 15 -23 15 -28z"/> <path d="M1632 4190 c-137 -62 -106 -267 44 -296 40 -7 122 27 149 64 12 16 21 47 23 82 3 45 0 61 -20 89 -46 69 -125 93 -196 61z m154 -56 c29 -30 34 -43 34 -84 0 -60 -33 -104 -90 -121 -33 -10 -44 -9 -83 10 -68 33 -94 99 -62 161 25 48 62 70 118 70 44 0 53 -4 83 -36z"/> <path d="M2320 5123 c-8 -34 -11 -105 -8 -178 8 -215 76 -373 317 -735 249 -372 330 -523 383 -705 52 -178 56 -339 13 -540 l-6 -30 15 32 c28 62 49 229 43 342 -8 138 -62 339 -96 361 -5 3 -27 41 -49 85 -49 99 -92 170 -247 405 -67 102 -130 201 -141 220 -10 19 -24 40 -31 47 -33 36 -135 266 -158 358 -29 115 -36 295 -13 343 l13 27 240 0 240 0 3 -355 c1 -216 6 -358 12 -364 7 -7 10 119 10 367 l0 377 -264 0 -265 0 -11 -57z"/> <path d="M3235 4420 c-209 -3 -324 -7 -255 -8 69 -1 231 -3 360 -3 129 0 242 -4 250 -9 13 -8 15 -58 15 -347 0 -186 -3 -346 -7 -355 -7 -17 -31 -18 -305 -19 -190 0 -287 -4 -268 -10 16 -4 157 -9 312 -9 l283 0 0 385 c0 212 -1 384 -2 383 -2 -2 -174 -5 -383 -8z"/> </g> </svg> 